<svg width="161" height="41" viewBox="0 0 161 41" fill="none" xmlns="http://www.w3.org/2000/svg">
<g filter="url(#filter0_d_0_580)">
<path d="M6.004 32C5.596 32 5.26 31.868 4.996 31.604C4.732 31.34 4.6 31.004 4.6 30.596V5.288C4.6 4.88 4.732 4.544 4.996 4.28C5.26 4.016 5.596 3.884 6.004 3.884H12.484C14.548 3.884 16.432 4.232 18.136 4.928C19.864 5.6 21.352 6.572 22.6 7.844C23.848 9.092 24.808 10.568 25.48 12.272C26.176 13.976 26.524 15.86 26.524 17.924C26.524 19.988 26.176 21.884 25.48 23.612C24.808 25.316 23.848 26.804 22.6 28.076C21.352 29.324 19.864 30.296 18.136 30.992C16.432 31.664 14.548 32 12.484 32H6.004ZM7.408 29.48H12.484C14.692 29.48 16.636 28.988 18.316 28.004C20.02 26.996 21.352 25.628 22.312 23.9C23.272 22.148 23.752 20.156 23.752 17.924C23.752 15.692 23.272 13.712 22.312 11.984C21.352 10.232 20.02 8.864 18.316 7.88C16.636 6.896 14.692 6.404 12.484 6.404H7.408V29.48ZM33.3831 32C32.9511 32 32.6031 31.88 32.3391 31.64C32.0991 31.376 31.9791 31.028 31.9791 30.596V13.712C31.9791 13.28 32.0991 12.944 32.3391 12.704C32.6031 12.44 32.9511 12.308 33.3831 12.308C33.7911 12.308 34.1151 12.44 34.3551 12.704C34.6191 12.944 34.7511 13.28 34.7511 13.712V30.596C34.7511 31.028 34.6191 31.376 34.3551 31.64C34.1151 31.88 33.7911 32 33.3831 32ZM33.3471 8.564C32.8191 8.564 32.3631 8.372 31.9791 7.988C31.5951 7.604 31.4031 7.136 31.4031 6.584C31.4031 5.984 31.5951 5.516 31.9791 5.18C32.3871 4.82 32.8551 4.64 33.3831 4.64C33.8871 4.64 34.3311 4.82 34.7151 5.18C35.1231 5.516 35.3271 5.984 35.3271 6.584C35.3271 7.136 35.1351 7.604 34.7511 7.988C34.3671 8.372 33.8991 8.564 33.3471 8.564ZM48.1454 32.18C46.7294 32.18 45.3254 31.94 43.9334 31.46C42.5414 30.98 41.4134 30.26 40.5494 29.3C40.2854 29.012 40.1774 28.688 40.2254 28.328C40.2734 27.968 40.4534 27.656 40.7654 27.392C41.1014 27.152 41.4494 27.056 41.8094 27.104C42.1694 27.152 42.4694 27.308 42.7094 27.572C43.2854 28.244 44.0414 28.76 44.9774 29.12C45.9374 29.48 46.9934 29.66 48.1454 29.66C49.9214 29.66 51.2054 29.36 51.9974 28.76C52.7894 28.136 53.1974 27.392 53.2214 26.528C53.2214 25.664 52.8134 24.956 51.9974 24.404C51.1814 23.828 49.8374 23.384 47.9654 23.072C45.5414 22.688 43.7654 22.016 42.6374 21.056C41.5094 20.096 40.9454 18.956 40.9454 17.636C40.9454 16.412 41.2694 15.392 41.9174 14.576C42.5654 13.76 43.4294 13.148 44.5094 12.74C45.5894 12.332 46.7774 12.128 48.0734 12.128C49.6814 12.128 51.0614 12.404 52.2134 12.956C53.3894 13.508 54.3374 14.252 55.0574 15.188C55.2974 15.5 55.3934 15.824 55.3454 16.16C55.2974 16.496 55.1054 16.772 54.7694 16.988C54.4814 17.156 54.1454 17.216 53.7614 17.168C53.4014 17.096 53.0894 16.916 52.8254 16.628C52.2254 15.932 51.5294 15.428 50.7374 15.116C49.9454 14.78 49.0334 14.612 48.0014 14.612C46.6814 14.612 45.6254 14.888 44.8334 15.44C44.0414 15.968 43.6454 16.64 43.6454 17.456C43.6454 18.008 43.7894 18.488 44.0774 18.896C44.3894 19.304 44.9054 19.664 45.6254 19.976C46.3694 20.288 47.4014 20.552 48.7214 20.768C50.5214 21.056 51.9374 21.488 52.9694 22.064C54.0254 22.616 54.7694 23.276 55.2014 24.044C55.6574 24.788 55.8854 25.604 55.8854 26.492C55.8854 27.62 55.5494 28.616 54.8774 29.48C54.2294 30.32 53.3174 30.98 52.1414 31.46C50.9894 31.94 49.6574 32.18 48.1454 32.18ZM68.9196 32.18C67.0236 32.18 65.3316 31.748 63.8436 30.884C62.3796 29.996 61.2156 28.796 60.3516 27.284C59.5116 25.772 59.0916 24.068 59.0916 22.172C59.0916 20.252 59.4996 18.536 60.3156 17.024C61.1316 15.512 62.2476 14.324 63.6636 13.46C65.0796 12.572 66.7116 12.128 68.5596 12.128C70.0236 12.128 71.3676 12.416 72.5916 12.992C73.8396 13.568 74.9316 14.432 75.8676 15.584C76.1316 15.872 76.2276 16.184 76.1556 16.52C76.0836 16.832 75.8796 17.108 75.5436 17.348C75.2796 17.54 74.9796 17.612 74.6436 17.564C74.3316 17.492 74.0556 17.312 73.8156 17.024C72.4236 15.44 70.6716 14.648 68.5596 14.648C67.2156 14.648 66.0276 14.972 64.9956 15.62C63.9876 16.268 63.1956 17.156 62.6196 18.284C62.0676 19.412 61.7916 20.708 61.7916 22.172C61.7916 23.612 62.0916 24.896 62.6916 26.024C63.2916 27.152 64.1316 28.04 65.2116 28.688C66.2916 29.336 67.5276 29.66 68.9196 29.66C69.8556 29.66 70.7076 29.54 71.4756 29.3C72.2676 29.036 72.9636 28.64 73.5636 28.112C73.8516 27.872 74.1516 27.74 74.4636 27.716C74.7756 27.692 75.0636 27.788 75.3276 28.004C75.6156 28.268 75.7716 28.568 75.7956 28.904C75.8436 29.24 75.7356 29.528 75.4716 29.768C73.7196 31.376 71.5356 32.18 68.9196 32.18ZM89.9698 32.18C88.0498 32.18 86.3338 31.748 84.8218 30.884C83.3098 30.02 82.1218 28.832 81.2578 27.32C80.3938 25.808 79.9618 24.092 79.9618 22.172C79.9618 20.228 80.3938 18.5 81.2578 16.988C82.1218 15.476 83.3098 14.288 84.8218 13.424C86.3338 12.56 88.0498 12.128 89.9698 12.128C91.8898 12.128 93.5938 12.56 95.0818 13.424C96.5938 14.288 97.7818 15.476 98.6458 16.988C99.5098 18.5 99.9538 20.228 99.9778 22.172C99.9778 24.092 99.5338 25.808 98.6458 27.32C97.7818 28.832 96.5938 30.02 95.0818 30.884C93.5938 31.748 91.8898 32.18 89.9698 32.18ZM89.9698 29.66C91.3618 29.66 92.6098 29.336 93.7138 28.688C94.8178 28.04 95.6818 27.152 96.3058 26.024C96.9298 24.896 97.2418 23.612 97.2418 22.172C97.2418 20.732 96.9298 19.448 96.3058 18.32C95.6818 17.168 94.8178 16.268 93.7138 15.62C92.6098 14.972 91.3618 14.648 89.9698 14.648C88.5778 14.648 87.3298 14.972 86.2258 15.62C85.1218 16.268 84.2458 17.168 83.5978 18.32C82.9738 19.448 82.6618 20.732 82.6618 22.172C82.6618 23.612 82.9738 24.896 83.5978 26.024C84.2458 27.152 85.1218 28.04 86.2258 28.688C87.3298 29.336 88.5778 29.66 89.9698 29.66ZM110.471 32C109.895 32 109.463 31.688 109.175 31.064L101.183 14.108C101.039 13.796 101.027 13.484 101.147 13.172C101.267 12.86 101.507 12.62 101.867 12.452C102.203 12.284 102.527 12.26 102.839 12.38C103.151 12.5 103.391 12.716 103.559 13.028L111.227 29.624H109.751L117.311 13.028C117.455 12.692 117.695 12.476 118.031 12.38C118.391 12.26 118.739 12.272 119.075 12.416C119.411 12.584 119.639 12.836 119.759 13.172C119.879 13.484 119.867 13.784 119.723 14.072L111.839 31.064C111.551 31.688 111.095 32 110.471 32ZM131.323 32.18C129.379 32.18 127.651 31.76 126.139 30.92C124.651 30.056 123.475 28.868 122.611 27.356C121.771 25.844 121.351 24.116 121.351 22.172C121.351 20.204 121.747 18.476 122.539 16.988C123.355 15.476 124.471 14.288 125.887 13.424C127.303 12.56 128.935 12.128 130.783 12.128C132.607 12.128 134.191 12.548 135.535 13.388C136.903 14.204 137.959 15.344 138.703 16.808C139.447 18.272 139.819 19.94 139.819 21.812C139.819 22.196 139.699 22.508 139.459 22.748C139.219 22.964 138.907 23.072 138.523 23.072H123.223V20.768H138.811L137.263 21.884C137.287 20.492 137.035 19.244 136.507 18.14C135.979 17.036 135.223 16.172 134.239 15.548C133.279 14.924 132.127 14.612 130.783 14.612C129.415 14.612 128.215 14.936 127.183 15.584C126.151 16.232 125.347 17.132 124.771 18.284C124.219 19.412 123.943 20.708 123.943 22.172C123.943 23.636 124.255 24.932 124.879 26.06C125.527 27.188 126.403 28.076 127.507 28.724C128.611 29.372 129.883 29.696 131.323 29.696C132.187 29.696 133.051 29.552 133.915 29.264C134.803 28.952 135.511 28.568 136.039 28.112C136.303 27.896 136.603 27.788 136.939 27.788C137.275 27.764 137.563 27.848 137.803 28.04C138.115 28.328 138.271 28.64 138.271 28.976C138.295 29.312 138.163 29.6 137.875 29.84C137.083 30.512 136.075 31.076 134.851 31.532C133.627 31.964 132.451 32.18 131.323 32.18ZM145.12 19.868C145.192 18.38 145.576 17.048 146.272 15.872C146.992 14.696 147.916 13.772 149.044 13.1C150.196 12.428 151.468 12.092 152.86 12.092C153.964 12.092 154.816 12.248 155.416 12.56C156.016 12.872 156.244 13.328 156.1 13.928C156.004 14.288 155.836 14.528 155.596 14.648C155.38 14.768 155.104 14.816 154.768 14.792C154.456 14.768 154.096 14.744 153.688 14.72C152.344 14.6 151.144 14.744 150.088 15.152C149.056 15.536 148.228 16.136 147.604 16.952C147.004 17.768 146.704 18.74 146.704 19.868H145.12ZM145.336 32C144.904 32 144.568 31.88 144.328 31.64C144.088 31.4 143.968 31.064 143.968 30.632V13.676C143.968 13.244 144.088 12.908 144.328 12.668C144.568 12.428 144.904 12.308 145.336 12.308C145.768 12.308 146.104 12.428 146.344 12.668C146.584 12.908 146.704 13.244 146.704 13.676V30.632C146.704 31.064 146.584 31.4 146.344 31.64C146.104 31.88 145.768 32 145.336 32Z" fill="black"/>
</g>
<defs>
<filter id="filter0_d_0_580" x="-3" y="0" width="163.316" height="48" filterUnits="userSpaceOnUse" color-interpolation-filters="sRGB">
<feFlood flood-opacity="0" result="BackgroundImageFix"/>
<feColorMatrix in="SourceAlpha" type="matrix" values="0 0 0 0 0 0 0 0 0 0 0 0 0 0 0 0 0 0 127 0" result="hardAlpha"/>
<feOffset dy="4"/>
<feGaussianBlur stdDeviation="2"/>
<feComposite in2="hardAlpha" operator="out"/>
<feColorMatrix type="matrix" values="0 0 0 0 0 0 0 0 0 0 0 0 0 0 0 0 0 0 0.25 0"/>
<feBlend mode="normal" in2="BackgroundImageFix" result="effect1_dropShadow_0_580"/>
<feBlend mode="normal" in="SourceGraphic" in2="effect1_dropShadow_0_580" result="shape"/>
</filter>
</defs>
</svg>


