<svg width="20" height="20" viewBox="0 0 20 20" fill="none" xmlns="http://www.w3.org/2000/svg">
<g clip-path="url(#clip0_1_130)">
<path fill-rule="evenodd" clip-rule="evenodd" d="M8.05051 4.05036C9.36333 2.73754 11.1439 2 13.0005 2C14.8571 2 16.6377 2.73754 17.9505 4.05036C19.2633 5.36318 20.0009 7.14375 20.0009 9.00036C20.0009 10.857 19.2633 12.6375 17.9505 13.9504L13.0005 18.9004L8.05051 13.9504C7.40042 13.3003 6.88474 12.5286 6.53291 11.6793C6.18108 10.83 6 9.91967 6 9.00036C6 8.08104 6.18108 7.17073 6.53291 6.32141C6.88474 5.47208 7.40042 4.70038 8.05051 4.05036ZM13.0005 11.0004C13.5309 11.0004 14.0396 10.7896 14.4147 10.4146C14.7898 10.0395 15.0005 9.53079 15.0005 9.00036C15.0005 8.46992 14.7898 7.96122 14.4147 7.58614C14.0396 7.21107 13.5309 7.00036 13.0005 7.00036C12.4701 7.00036 11.9614 7.21107 11.5863 7.58614C11.2112 7.96122 11.0005 8.46992 11.0005 9.00036C11.0005 9.53079 11.2112 10.0395 11.5863 10.4146C11.9614 10.7896 12.4701 11.0004 13.0005 11.0004Z" fill="black"/>
</g>
<defs>
<clipPath id="clip0_1_130">
<rect width="20" height="20" fill="white"/>
</clipPath>
</defs>
</svg>
