<svg width="149" height="48" viewBox="0 0 149 48" fill="none" xmlns="http://www.w3.org/2000/svg">
<g filter="url(#filter0_d_0_451)">
<path d="M6.004 32C5.62 32 5.284 31.868 4.996 31.604C4.732 31.34 4.6 31.004 4.6 30.596V5.288C4.6 4.904 4.732 4.58 4.996 4.316C5.284 4.028 5.62 3.884 6.004 3.884C6.388 3.884 6.712 4.028 6.976 4.316C7.264 4.58 7.408 4.904 7.408 5.288V29.336H21.484C21.868 29.336 22.192 29.468 22.456 29.732C22.744 29.972 22.888 30.284 22.888 30.668C22.888 31.052 22.744 31.376 22.456 31.64C22.192 31.88 21.868 32 21.484 32H6.004ZM35.4452 32.18C33.5252 32.18 31.8092 31.748 30.2972 30.884C28.7852 30.02 27.5972 28.832 26.7332 27.32C25.8692 25.808 25.4372 24.092 25.4372 22.172C25.4372 20.228 25.8692 18.5 26.7332 16.988C27.5972 15.476 28.7852 14.288 30.2972 13.424C31.8092 12.56 33.5252 12.128 35.4452 12.128C37.3652 12.128 39.0693 12.56 40.5573 13.424C42.0693 14.288 43.2573 15.476 44.1213 16.988C44.9853 18.5 45.4293 20.228 45.4533 22.172C45.4533 24.092 45.0093 25.808 44.1213 27.32C43.2573 28.832 42.0693 30.02 40.5573 30.884C39.0693 31.748 37.3652 32.18 35.4452 32.18ZM35.4452 29.66C36.8372 29.66 38.0852 29.336 39.1892 28.688C40.2932 28.04 41.1573 27.152 41.7813 26.024C42.4052 24.896 42.7172 23.612 42.7172 22.172C42.7172 20.732 42.4052 19.448 41.7813 18.32C41.1573 17.168 40.2932 16.268 39.1892 15.62C38.0852 14.972 36.8372 14.648 35.4452 14.648C34.0532 14.648 32.8052 14.972 31.7012 15.62C30.5972 16.268 29.7212 17.168 29.0732 18.32C28.4492 19.448 28.1372 20.732 28.1372 22.172C28.1372 23.612 28.4492 24.896 29.0732 26.024C29.7212 27.152 30.5972 28.04 31.7012 28.688C32.8052 29.336 34.0532 29.66 35.4452 29.66ZM58.9805 32.18C57.0845 32.18 55.4045 31.76 53.9405 30.92C52.4765 30.056 51.3245 28.868 50.4845 27.356C49.6685 25.844 49.2605 24.116 49.2605 22.172C49.2605 20.204 49.6925 18.464 50.5565 16.952C51.4205 15.44 52.6085 14.264 54.1205 13.424C55.6325 12.56 57.3485 12.128 59.2685 12.128C61.2125 12.128 62.9285 12.56 64.4165 13.424C65.9285 14.264 67.1045 15.44 67.9445 16.952C68.8085 18.464 69.2525 20.204 69.2765 22.172L67.6565 23.036C67.6565 24.812 67.2845 26.396 66.5405 27.788C65.7965 29.156 64.7645 30.236 63.4445 31.028C62.1485 31.796 60.6605 32.18 58.9805 32.18ZM59.3405 39.776C57.4445 39.776 55.7765 39.416 54.3365 38.696C52.8965 38 51.7085 37.04 50.7725 35.816C50.5085 35.528 50.3885 35.216 50.4125 34.88C50.4605 34.544 50.6405 34.268 50.9525 34.052C51.2645 33.836 51.6125 33.764 51.9965 33.836C52.3805 33.908 52.6805 34.088 52.8965 34.376C53.5925 35.24 54.4805 35.936 55.5605 36.464C56.6645 36.992 57.9365 37.256 59.3765 37.256C60.7205 37.256 61.9325 36.932 63.0125 36.284C64.0925 35.636 64.9445 34.724 65.5685 33.548C66.2165 32.372 66.5405 30.992 66.5405 29.408V23.936L67.5845 21.848L69.2765 22.172V29.516C69.2765 31.46 68.8445 33.2 67.9805 34.736C67.1165 36.296 65.9405 37.52 64.4525 38.408C62.9645 39.32 61.2605 39.776 59.3405 39.776ZM59.2685 29.66C60.6845 29.66 61.9325 29.348 63.0125 28.724C64.1165 28.076 64.9805 27.188 65.6045 26.06C66.2285 24.932 66.5405 23.636 66.5405 22.172C66.5405 20.708 66.2285 19.412 65.6045 18.284C64.9805 17.132 64.1165 16.244 63.0125 15.62C61.9325 14.972 60.6845 14.648 59.2685 14.648C57.8525 14.648 56.5925 14.972 55.4885 15.62C54.3845 16.244 53.5205 17.132 52.8965 18.284C52.2725 19.412 51.9605 20.708 51.9605 22.172C51.9605 23.636 52.2725 24.932 52.8965 26.06C53.5205 27.188 54.3845 28.076 55.4885 28.724C56.5925 29.348 57.8525 29.66 59.2685 29.66ZM86.1147 32C85.6827 32 85.3347 31.88 85.0707 31.64C84.8307 31.376 84.7107 31.028 84.7107 30.596V13.712C84.7107 13.28 84.8307 12.944 85.0707 12.704C85.3347 12.44 85.6827 12.308 86.1147 12.308C86.5227 12.308 86.8467 12.44 87.0867 12.704C87.3507 12.944 87.4827 13.28 87.4827 13.712V30.596C87.4827 31.028 87.3507 31.376 87.0867 31.64C86.8467 31.88 86.5227 32 86.1147 32ZM86.0787 8.564C85.5507 8.564 85.0947 8.372 84.7107 7.988C84.3267 7.604 84.1347 7.136 84.1347 6.584C84.1347 5.984 84.3267 5.516 84.7107 5.18C85.1187 4.82 85.5867 4.64 86.1147 4.64C86.6187 4.64 87.0627 4.82 87.4467 5.18C87.8547 5.516 88.0587 5.984 88.0587 6.584C88.0587 7.136 87.8667 7.604 87.4827 7.988C87.0987 8.372 86.6307 8.564 86.0787 8.564ZM110.885 32C110.477 32 110.141 31.868 109.877 31.604C109.613 31.34 109.481 31.016 109.481 30.632V21.272C109.481 19.784 109.193 18.56 108.617 17.6C108.065 16.64 107.297 15.92 106.313 15.44C105.353 14.96 104.261 14.72 103.037 14.72C101.861 14.72 100.793 14.948 99.8329 15.404C98.8969 15.86 98.1529 16.484 97.6009 17.276C97.0489 18.068 96.7729 18.968 96.7729 19.976H94.7929C94.8409 18.464 95.2489 17.12 96.0169 15.944C96.7849 14.744 97.8049 13.808 99.0769 13.136C100.349 12.44 101.765 12.092 103.325 12.092C105.029 12.092 106.553 12.452 107.897 13.172C109.241 13.868 110.297 14.9 111.065 16.268C111.857 17.636 112.253 19.304 112.253 21.272V30.632C112.253 31.016 112.121 31.34 111.857 31.604C111.593 31.868 111.269 32 110.885 32ZM95.4049 32C94.9729 32 94.6249 31.88 94.3609 31.64C94.1209 31.376 94.0009 31.04 94.0009 30.632V13.712C94.0009 13.28 94.1209 12.944 94.3609 12.704C94.6249 12.44 94.9729 12.308 95.4049 12.308C95.8129 12.308 96.1369 12.44 96.3769 12.704C96.6409 12.944 96.7729 13.28 96.7729 13.712V30.632C96.7729 31.04 96.6409 31.376 96.3769 31.64C96.1369 31.88 95.8129 32 95.4049 32Z" fill="black"/>
</g>
<defs>
<filter id="filter0_d_0_451" x="-3" y="0" width="156" height="48" filterUnits="userSpaceOnUse" color-interpolation-filters="sRGB">
<feFlood flood-opacity="0" result="BackgroundImageFix"/>
<feColorMatrix in="SourceAlpha" type="matrix" values="0 0 0 0 0 0 0 0 0 0 0 0 0 0 0 0 0 0 127 0" result="hardAlpha"/>
<feOffset dy="4"/>
<feGaussianBlur stdDeviation="2"/>
<feComposite in2="hardAlpha" operator="out"/>
<feColorMatrix type="matrix" values="0 0 0 0 0 0 0 0 0 0 0 0 0 0 0 0 0 0 0.25 0"/>
<feBlend mode="normal" in2="BackgroundImageFix" result="effect1_dropShadow_0_451"/>
<feBlend mode="normal" in="SourceGraphic" in2="effect1_dropShadow_0_451" result="shape"/>
</filter>
</defs>
</svg>

