<svg width="152" height="48" viewBox="0 0 152 48" fill="none" xmlns="http://www.w3.org/2000/svg">
<g filter="url(#filter0_d_0_71)">
<path d="M6.004 32C5.596 32 5.26 31.868 4.996 31.604C4.732 31.34 4.6 31.004 4.6 30.596V5.288C4.6 4.88 4.732 4.544 4.996 4.28C5.26 4.016 5.596 3.884 6.004 3.884H12.736C14.488 3.884 16.048 4.256 17.416 5C18.784 5.72 19.852 6.74 20.62 8.06C21.412 9.356 21.808 10.856 21.808 12.56C21.808 14.192 21.412 15.644 20.62 16.916C19.852 18.188 18.784 19.184 17.416 19.904C16.048 20.624 14.488 20.984 12.736 20.984H7.408V30.596C7.408 31.004 7.276 31.34 7.012 31.604C6.748 31.868 6.412 32 6.004 32ZM21.052 32C20.74 32 20.488 31.94 20.296 31.82C20.128 31.7 19.972 31.52 19.828 31.28L12.916 20.264L15.724 19.544L22.168 29.84C22.528 30.416 22.588 30.92 22.348 31.352C22.132 31.784 21.7 32 21.052 32ZM7.408 18.284H12.736C13.96 18.284 15.04 18.044 15.976 17.564C16.936 17.06 17.692 16.376 18.244 15.512C18.796 14.648 19.072 13.664 19.072 12.56C19.072 11.384 18.796 10.352 18.244 9.464C17.692 8.552 16.936 7.844 15.976 7.34C15.04 6.836 13.96 6.584 12.736 6.584H7.408V18.284ZM34.8819 32.18C32.9379 32.18 31.2099 31.76 29.6979 30.92C28.2099 30.056 27.0339 28.868 26.1699 27.356C25.3299 25.844 24.9099 24.116 24.9099 22.172C24.9099 20.204 25.3059 18.476 26.0979 16.988C26.9139 15.476 28.0299 14.288 29.4459 13.424C30.8619 12.56 32.4939 12.128 34.3419 12.128C36.1659 12.128 37.7499 12.548 39.0939 13.388C40.4619 14.204 41.5179 15.344 42.2619 16.808C43.0059 18.272 43.3779 19.94 43.3779 21.812C43.3779 22.196 43.2579 22.508 43.0179 22.748C42.7779 22.964 42.4659 23.072 42.0819 23.072H26.7819V20.768H42.3699L40.8219 21.884C40.8459 20.492 40.5939 19.244 40.0659 18.14C39.5379 17.036 38.7819 16.172 37.7979 15.548C36.8379 14.924 35.6859 14.612 34.3419 14.612C32.9739 14.612 31.7739 14.936 30.7419 15.584C29.7099 16.232 28.9059 17.132 28.3299 18.284C27.7779 19.412 27.5019 20.708 27.5019 22.172C27.5019 23.636 27.8139 24.932 28.4379 26.06C29.0859 27.188 29.9619 28.076 31.0659 28.724C32.1699 29.372 33.4419 29.696 34.8819 29.696C35.7459 29.696 36.6099 29.552 37.4739 29.264C38.3619 28.952 39.0699 28.568 39.5979 28.112C39.8619 27.896 40.1619 27.788 40.4979 27.788C40.8339 27.764 41.1219 27.848 41.3619 28.04C41.6739 28.328 41.8299 28.64 41.8299 28.976C41.8539 29.312 41.7219 29.6 41.4339 29.84C40.6419 30.512 39.6339 31.076 38.4099 31.532C37.1859 31.964 36.0099 32.18 34.8819 32.18ZM55.5001 32.18C53.6041 32.18 51.9241 31.76 50.4601 30.92C48.9961 30.056 47.8441 28.868 47.0041 27.356C46.1881 25.844 45.7801 24.116 45.7801 22.172C45.7801 20.204 46.2121 18.464 47.0761 16.952C47.9401 15.44 49.1281 14.264 50.6401 13.424C52.1521 12.56 53.8681 12.128 55.7881 12.128C57.7321 12.128 59.4481 12.56 60.9361 13.424C62.4481 14.264 63.6241 15.44 64.4641 16.952C65.3281 18.464 65.7721 20.204 65.7961 22.172L64.1761 23.036C64.1761 24.812 63.8041 26.396 63.0601 27.788C62.3161 29.156 61.2841 30.236 59.9641 31.028C58.6681 31.796 57.1801 32.18 55.5001 32.18ZM55.8601 39.776C53.9641 39.776 52.2961 39.416 50.8561 38.696C49.4161 38 48.2281 37.04 47.2921 35.816C47.0281 35.528 46.9081 35.216 46.9321 34.88C46.9801 34.544 47.1601 34.268 47.4721 34.052C47.7841 33.836 48.1321 33.764 48.5161 33.836C48.9001 33.908 49.2001 34.088 49.4161 34.376C50.1121 35.24 51.0001 35.936 52.0801 36.464C53.1841 36.992 54.4561 37.256 55.8961 37.256C57.2401 37.256 58.4521 36.932 59.5321 36.284C60.6121 35.636 61.4641 34.724 62.0881 33.548C62.7361 32.372 63.0601 30.992 63.0601 29.408V23.936L64.1041 21.848L65.7961 22.172V29.516C65.7961 31.46 65.3641 33.2 64.5001 34.736C63.6361 36.296 62.4601 37.52 60.9721 38.408C59.4841 39.32 57.7801 39.776 55.8601 39.776ZM55.7881 29.66C57.2041 29.66 58.4521 29.348 59.5321 28.724C60.6361 28.076 61.5001 27.188 62.1241 26.06C62.7481 24.932 63.0601 23.636 63.0601 22.172C63.0601 20.708 62.7481 19.412 62.1241 18.284C61.5001 17.132 60.6361 16.244 59.5321 15.62C58.4521 14.972 57.2041 14.648 55.7881 14.648C54.3721 14.648 53.1121 14.972 52.0081 15.62C50.9041 16.244 50.0401 17.132 49.4161 18.284C48.7921 19.412 48.4801 20.708 48.4801 22.172C48.4801 23.636 48.7921 24.932 49.4161 26.06C50.0401 27.188 50.9041 28.076 52.0081 28.724C53.1121 29.348 54.3721 29.66 55.7881 29.66ZM72.6273 32C72.1953 32 71.8473 31.88 71.5833 31.64C71.3433 31.376 71.2233 31.028 71.2233 30.596V13.712C71.2233 13.28 71.3433 12.944 71.5833 12.704C71.8473 12.44 72.1953 12.308 72.6273 12.308C73.0353 12.308 73.3593 12.44 73.5993 12.704C73.8633 12.944 73.9953 13.28 73.9953 13.712V30.596C73.9953 31.028 73.8633 31.376 73.5993 31.64C73.3593 31.88 73.0353 32 72.6273 32ZM72.5913 8.564C72.0633 8.564 71.6073 8.372 71.2233 7.988C70.8393 7.604 70.6473 7.136 70.6473 6.584C70.6473 5.984 70.8393 5.516 71.2233 5.18C71.6313 4.82 72.0993 4.64 72.6273 4.64C73.1313 4.64 73.5753 4.82 73.9593 5.18C74.3673 5.516 74.5713 5.984 74.5713 6.584C74.5713 7.136 74.3793 7.604 73.9953 7.988C73.6113 8.372 73.1433 8.564 72.5913 8.564ZM87.3896 32.18C85.9736 32.18 84.5696 31.94 83.1776 31.46C81.7856 30.98 80.6576 30.26 79.7936 29.3C79.5296 29.012 79.4216 28.688 79.4696 28.328C79.5176 27.968 79.6976 27.656 80.0096 27.392C80.3456 27.152 80.6936 27.056 81.0536 27.104C81.4136 27.152 81.7136 27.308 81.9536 27.572C82.5296 28.244 83.2856 28.76 84.2216 29.12C85.1816 29.48 86.2376 29.66 87.3896 29.66C89.1656 29.66 90.4496 29.36 91.2416 28.76C92.0336 28.136 92.4416 27.392 92.4656 26.528C92.4656 25.664 92.0576 24.956 91.2416 24.404C90.4256 23.828 89.0816 23.384 87.2096 23.072C84.7856 22.688 83.0096 22.016 81.8816 21.056C80.7536 20.096 80.1896 18.956 80.1896 17.636C80.1896 16.412 80.5136 15.392 81.1616 14.576C81.8096 13.76 82.6736 13.148 83.7536 12.74C84.8336 12.332 86.0216 12.128 87.3176 12.128C88.9256 12.128 90.3056 12.404 91.4576 12.956C92.6336 13.508 93.5816 14.252 94.3016 15.188C94.5416 15.5 94.6376 15.824 94.5896 16.16C94.5416 16.496 94.3496 16.772 94.0136 16.988C93.7256 17.156 93.3896 17.216 93.0056 17.168C92.6456 17.096 92.3336 16.916 92.0696 16.628C91.4696 15.932 90.7736 15.428 89.9816 15.116C89.1896 14.78 88.2776 14.612 87.2456 14.612C85.9256 14.612 84.8696 14.888 84.0776 15.44C83.2856 15.968 82.8896 16.64 82.8896 17.456C82.8896 18.008 83.0336 18.488 83.3216 18.896C83.6336 19.304 84.1496 19.664 84.8696 19.976C85.6136 20.288 86.6456 20.552 87.9656 20.768C89.7656 21.056 91.1816 21.488 92.2136 22.064C93.2696 22.616 94.0136 23.276 94.4456 24.044C94.9016 24.788 95.1296 25.604 95.1296 26.492C95.1296 27.62 94.7936 28.616 94.1216 29.48C93.4736 30.32 92.5616 30.98 91.3856 31.46C90.2336 31.94 88.9016 32.18 87.3896 32.18ZM107.084 32C105.812 32 104.672 31.7 103.664 31.1C102.68 30.5 101.9 29.684 101.324 28.652C100.748 27.596 100.46 26.396 100.46 25.052V7.448C100.46 7.04 100.58 6.704 100.82 6.44C101.084 6.176 101.42 6.044 101.828 6.044C102.236 6.044 102.572 6.176 102.836 6.44C103.1 6.704 103.232 7.04 103.232 7.448V25.052C103.232 26.276 103.592 27.284 104.312 28.076C105.032 28.844 105.956 29.228 107.084 29.228H108.056C108.44 29.228 108.752 29.36 108.992 29.624C109.232 29.888 109.352 30.224 109.352 30.632C109.352 31.04 109.208 31.376 108.92 31.64C108.632 31.88 108.272 32 107.84 32H107.084ZM98.1198 15.44C97.7598 15.44 97.4598 15.332 97.2198 15.116C96.9798 14.876 96.8598 14.588 96.8598 14.252C96.8598 13.892 96.9798 13.604 97.2198 13.388C97.4598 13.148 97.7598 13.028 98.1198 13.028H107.3C107.66 13.028 107.96 13.148 108.2 13.388C108.44 13.604 108.56 13.892 108.56 14.252C108.56 14.588 108.44 14.876 108.2 15.116C107.96 15.332 107.66 15.44 107.3 15.44H98.1198ZM122.252 32.18C120.308 32.18 118.58 31.76 117.068 30.92C115.58 30.056 114.404 28.868 113.54 27.356C112.7 25.844 112.28 24.116 112.28 22.172C112.28 20.204 112.676 18.476 113.468 16.988C114.284 15.476 115.4 14.288 116.816 13.424C118.232 12.56 119.864 12.128 121.712 12.128C123.536 12.128 125.12 12.548 126.464 13.388C127.832 14.204 128.888 15.344 129.632 16.808C130.376 18.272 130.748 19.94 130.748 21.812C130.748 22.196 130.628 22.508 130.388 22.748C130.148 22.964 129.836 23.072 129.452 23.072H114.152V20.768H129.74L128.192 21.884C128.216 20.492 127.964 19.244 127.436 18.14C126.908 17.036 126.152 16.172 125.168 15.548C124.208 14.924 123.056 14.612 121.712 14.612C120.344 14.612 119.144 14.936 118.112 15.584C117.08 16.232 116.276 17.132 115.7 18.284C115.148 19.412 114.872 20.708 114.872 22.172C114.872 23.636 115.184 24.932 115.808 26.06C116.456 27.188 117.332 28.076 118.436 28.724C119.54 29.372 120.812 29.696 122.252 29.696C123.116 29.696 123.98 29.552 124.844 29.264C125.732 28.952 126.44 28.568 126.968 28.112C127.232 27.896 127.532 27.788 127.868 27.788C128.204 27.764 128.492 27.848 128.732 28.04C129.044 28.328 129.2 28.64 129.2 28.976C129.224 29.312 129.092 29.6 128.804 29.84C128.012 30.512 127.004 31.076 125.78 31.532C124.556 31.964 123.38 32.18 122.252 32.18ZM136.05 19.868C136.122 18.38 136.506 17.048 137.202 15.872C137.922 14.696 138.846 13.772 139.974 13.1C141.126 12.428 142.398 12.092 143.79 12.092C144.894 12.092 145.746 12.248 146.346 12.56C146.946 12.872 147.174 13.328 147.03 13.928C146.934 14.288 146.766 14.528 146.526 14.648C146.31 14.768 146.034 14.816 145.698 14.792C145.386 14.768 145.026 14.744 144.618 14.72C143.274 14.6 142.074 14.744 141.018 15.152C139.986 15.536 139.158 16.136 138.534 16.952C137.934 17.768 137.634 18.74 137.634 19.868H136.05ZM136.266 32C135.834 32 135.498 31.88 135.258 31.64C135.018 31.4 134.898 31.064 134.898 30.632V13.676C134.898 13.244 135.018 12.908 135.258 12.668C135.498 12.428 135.834 12.308 136.266 12.308C136.698 12.308 137.034 12.428 137.274 12.668C137.514 12.908 137.634 13.244 137.634 13.676V30.632C137.634 31.064 137.514 31.4 137.274 31.64C137.034 31.88 136.698 32 136.266 32Z" fill="black"/>
</g>
<defs>
<filter id="filter0_d_0_71" x="-3" y="0" width="156" height="48" filterUnits="userSpaceOnUse" color-interpolation-filters="sRGB">
<feFlood flood-opacity="0" result="BackgroundImageFix"/>
<feColorMatrix in="SourceAlpha" type="matrix" values="0 0 0 0 0 0 0 0 0 0 0 0 0 0 0 0 0 0 127 0" result="hardAlpha"/>
<feOffset dy="4"/>
<feGaussianBlur stdDeviation="2"/>
<feComposite in2="hardAlpha" operator="out"/>
<feColorMatrix type="matrix" values="0 0 0 0 0 0 0 0 0 0 0 0 0 0 0 0 0 0 0.25 0"/>
<feBlend mode="normal" in2="BackgroundImageFix" result="effect1_dropShadow_0_71"/>
<feBlend mode="normal" in="SourceGraphic" in2="effect1_dropShadow_0_71" result="shape"/>
</filter>
</defs>
</svg>

