<svg width="150" height="41" viewBox="0 0 150 41" fill="none" xmlns="http://www.w3.org/2000/svg">
<g filter="url(#filter0_d_0_679)">
<path d="M14.24 32.36C12.704 32.36 11.276 32.144 9.956 31.712C8.66 31.256 7.532 30.62 6.572 29.804C5.612 28.988 4.88 28.04 4.376 26.96C4.184 26.576 4.172 26.228 4.34 25.916C4.532 25.58 4.844 25.352 5.276 25.232C5.612 25.136 5.936 25.172 6.248 25.34C6.584 25.508 6.836 25.76 7.004 26.096C7.364 26.792 7.892 27.416 8.588 27.968C9.284 28.52 10.112 28.952 11.072 29.264C12.032 29.552 13.088 29.696 14.24 29.696C15.512 29.696 16.64 29.492 17.624 29.084C18.608 28.652 19.376 28.04 19.928 27.248C20.504 26.432 20.792 25.448 20.792 24.296C20.792 22.832 20.252 21.572 19.172 20.516C18.092 19.46 16.4 18.788 14.096 18.5C11.288 18.164 9.092 17.3 7.508 15.908C5.924 14.492 5.132 12.764 5.132 10.724C5.132 9.26 5.516 7.988 6.284 6.908C7.076 5.828 8.156 5 9.524 4.424C10.892 3.824 12.464 3.524 14.24 3.524C15.56 3.524 16.76 3.74 17.84 4.172C18.92 4.58 19.856 5.132 20.648 5.828C21.464 6.5 22.124 7.244 22.628 8.06C22.868 8.444 22.94 8.816 22.844 9.176C22.772 9.536 22.568 9.812 22.232 10.004C21.872 10.172 21.5 10.196 21.116 10.076C20.756 9.956 20.48 9.728 20.288 9.392C19.928 8.84 19.472 8.324 18.92 7.844C18.392 7.34 17.744 6.944 16.976 6.656C16.208 6.368 15.284 6.212 14.204 6.188C12.308 6.188 10.784 6.596 9.632 7.412C8.48 8.204 7.904 9.368 7.904 10.904C7.904 11.72 8.12 12.476 8.552 13.172C8.984 13.844 9.692 14.432 10.676 14.936C11.684 15.416 13.028 15.776 14.708 16.016C17.708 16.448 19.928 17.372 21.368 18.788C22.832 20.18 23.564 22.004 23.564 24.26C23.564 25.556 23.324 26.708 22.844 27.716C22.388 28.724 21.728 29.576 20.864 30.272C20.024 30.944 19.028 31.46 17.876 31.82C16.748 32.18 15.536 32.36 14.24 32.36ZM37.4639 32.18C35.5199 32.18 33.7919 31.76 32.2799 30.92C30.7919 30.056 29.6159 28.868 28.7519 27.356C27.9119 25.844 27.4919 24.116 27.4919 22.172C27.4919 20.204 27.8879 18.476 28.6799 16.988C29.4959 15.476 30.6119 14.288 32.0279 13.424C33.4439 12.56 35.0759 12.128 36.9239 12.128C38.7479 12.128 40.3319 12.548 41.6759 13.388C43.0439 14.204 44.0999 15.344 44.8439 16.808C45.5879 18.272 45.9599 19.94 45.9599 21.812C45.9599 22.196 45.8399 22.508 45.5999 22.748C45.3599 22.964 45.0479 23.072 44.6639 23.072H29.3639V20.768H44.9519L43.4039 21.884C43.4279 20.492 43.1759 19.244 42.6479 18.14C42.1199 17.036 41.3639 16.172 40.3799 15.548C39.4199 14.924 38.2679 14.612 36.9239 14.612C35.5559 14.612 34.3559 14.936 33.3239 15.584C32.2919 16.232 31.4879 17.132 30.9119 18.284C30.3599 19.412 30.0839 20.708 30.0839 22.172C30.0839 23.636 30.3959 24.932 31.0199 26.06C31.6679 27.188 32.5439 28.076 33.6479 28.724C34.7519 29.372 36.0239 29.696 37.4639 29.696C38.3279 29.696 39.1919 29.552 40.0559 29.264C40.9439 28.952 41.6519 28.568 42.1799 28.112C42.4439 27.896 42.7439 27.788 43.0799 27.788C43.4159 27.764 43.7039 27.848 43.9439 28.04C44.2559 28.328 44.4119 28.64 44.4119 28.976C44.4359 29.312 44.3039 29.6 44.0159 29.84C43.2239 30.512 42.2159 31.076 40.9919 31.532C39.7679 31.964 38.5919 32.18 37.4639 32.18ZM58.0821 32.18C56.2341 32.18 54.5781 31.748 53.1141 30.884C51.6501 29.996 50.4861 28.796 49.6221 27.284C48.7821 25.772 48.3621 24.068 48.3621 22.172C48.3621 20.252 48.7941 18.536 49.6581 17.024C50.5461 15.512 51.7461 14.324 53.2581 13.46C54.7701 12.572 56.4741 12.128 58.3701 12.128C60.2661 12.128 61.9581 12.572 63.4461 13.46C64.9581 14.324 66.1461 15.512 67.0101 17.024C67.8981 18.536 68.3541 20.252 68.3781 22.172L67.2621 23.036C67.2621 24.764 66.8541 26.324 66.0381 27.716C65.2461 29.084 64.1541 30.176 62.7621 30.992C61.3941 31.784 59.8341 32.18 58.0821 32.18ZM58.3701 29.66C59.7621 29.66 60.9981 29.336 62.0781 28.688C63.1821 28.04 64.0461 27.152 64.6701 26.024C65.3181 24.872 65.6421 23.588 65.6421 22.172C65.6421 20.732 65.3181 19.448 64.6701 18.32C64.0461 17.192 63.1821 16.304 62.0781 15.656C60.9981 14.984 59.7621 14.648 58.3701 14.648C57.0021 14.648 55.7661 14.984 54.6621 15.656C53.5581 16.304 52.6821 17.192 52.0341 18.32C51.3861 19.448 51.0621 20.732 51.0621 22.172C51.0621 23.588 51.3861 24.872 52.0341 26.024C52.6821 27.152 53.5581 28.04 54.6621 28.688C55.7661 29.336 57.0021 29.66 58.3701 29.66ZM66.9741 32C66.5661 32 66.2301 31.88 65.9661 31.64C65.7021 31.376 65.5701 31.04 65.5701 30.632V24.476L66.2541 21.632L68.3781 22.172V30.632C68.3781 31.04 68.2461 31.376 67.9821 31.64C67.7181 31.88 67.3821 32 66.9741 32ZM74.3814 19.868C74.4534 18.38 74.8374 17.048 75.5334 15.872C76.2534 14.696 77.1774 13.772 78.3054 13.1C79.4574 12.428 80.7294 12.092 82.1214 12.092C83.2254 12.092 84.0774 12.248 84.6774 12.56C85.2774 12.872 85.5054 13.328 85.3614 13.928C85.2654 14.288 85.0974 14.528 84.8574 14.648C84.6414 14.768 84.3654 14.816 84.0294 14.792C83.7174 14.768 83.3574 14.744 82.9494 14.72C81.6054 14.6 80.4054 14.744 79.3494 15.152C78.3174 15.536 77.4894 16.136 76.8654 16.952C76.2654 17.768 75.9654 18.74 75.9654 19.868H74.3814ZM74.5974 32C74.1654 32 73.8294 31.88 73.5894 31.64C73.3494 31.4 73.2294 31.064 73.2294 30.632V13.676C73.2294 13.244 73.3494 12.908 73.5894 12.668C73.8294 12.428 74.1654 12.308 74.5974 12.308C75.0294 12.308 75.3654 12.428 75.6054 12.668C75.8454 12.908 75.9654 13.244 75.9654 13.676V30.632C75.9654 31.064 75.8454 31.4 75.6054 31.64C75.3654 31.88 75.0294 32 74.5974 32ZM96.5202 32.18C94.6242 32.18 92.9322 31.748 91.4442 30.884C89.9802 29.996 88.8162 28.796 87.9522 27.284C87.1122 25.772 86.6922 24.068 86.6922 22.172C86.6922 20.252 87.1002 18.536 87.9162 17.024C88.7322 15.512 89.8482 14.324 91.2642 13.46C92.6802 12.572 94.3122 12.128 96.1602 12.128C97.6242 12.128 98.9682 12.416 100.192 12.992C101.44 13.568 102.532 14.432 103.468 15.584C103.732 15.872 103.828 16.184 103.756 16.52C103.684 16.832 103.48 17.108 103.144 17.348C102.88 17.54 102.58 17.612 102.244 17.564C101.932 17.492 101.656 17.312 101.416 17.024C100.024 15.44 98.2722 14.648 96.1602 14.648C94.8162 14.648 93.6282 14.972 92.5962 15.62C91.5882 16.268 90.7962 17.156 90.2202 18.284C89.6682 19.412 89.3922 20.708 89.3922 22.172C89.3922 23.612 89.6922 24.896 90.2922 26.024C90.8922 27.152 91.7322 28.04 92.8122 28.688C93.8922 29.336 95.1282 29.66 96.5202 29.66C97.4562 29.66 98.3082 29.54 99.0762 29.3C99.8682 29.036 100.564 28.64 101.164 28.112C101.452 27.872 101.752 27.74 102.064 27.716C102.376 27.692 102.664 27.788 102.928 28.004C103.216 28.268 103.372 28.568 103.396 28.904C103.444 29.24 103.336 29.528 103.072 29.768C101.32 31.376 99.1362 32.18 96.5202 32.18ZM110.01 23.972C109.578 23.972 109.23 23.84 108.966 23.576C108.726 23.312 108.606 22.976 108.606 22.568V5.288C108.606 4.856 108.726 4.52 108.966 4.28C109.23 4.016 109.578 3.884 110.01 3.884C110.418 3.884 110.742 4.016 110.982 4.28C111.246 4.52 111.378 4.856 111.378 5.288V22.568C111.378 22.976 111.246 23.312 110.982 23.576C110.742 23.84 110.418 23.972 110.01 23.972ZM125.49 32C125.082 32 124.746 31.868 124.482 31.604C124.218 31.34 124.086 31.016 124.086 30.632V21.272C124.086 19.784 123.798 18.56 123.222 17.6C122.67 16.64 121.902 15.92 120.918 15.44C119.958 14.96 118.866 14.72 117.642 14.72C116.466 14.72 115.398 14.948 114.438 15.404C113.502 15.86 112.758 16.484 112.206 17.276C111.654 18.068 111.378 18.968 111.378 19.976H109.398C109.446 18.464 109.854 17.12 110.622 15.944C111.39 14.744 112.41 13.808 113.682 13.136C114.954 12.44 116.37 12.092 117.93 12.092C119.634 12.092 121.158 12.452 122.502 13.172C123.846 13.868 124.902 14.9 125.67 16.268C126.462 17.636 126.858 19.304 126.858 21.272V30.632C126.858 31.016 126.726 31.34 126.462 31.604C126.198 31.868 125.874 32 125.49 32ZM110.01 32C109.578 32 109.23 31.88 108.966 31.64C108.726 31.376 108.606 31.04 108.606 30.632V13.712C108.606 13.28 108.726 12.944 108.966 12.704C109.23 12.44 109.578 12.308 110.01 12.308C110.418 12.308 110.742 12.44 110.982 12.704C111.246 12.944 111.378 13.28 111.378 13.712V30.632C111.378 31.04 111.246 31.376 110.982 31.64C110.742 31.88 110.418 32 110.01 32Z" fill="black"/>
</g>
<defs>
<filter id="filter0_d_0_679" x="-2" y="0" width="156" height="48" filterUnits="userSpaceOnUse" color-interpolation-filters="sRGB">
<feFlood flood-opacity="0" result="BackgroundImageFix"/>
<feColorMatrix in="SourceAlpha" type="matrix" values="0 0 0 0 0 0 0 0 0 0 0 0 0 0 0 0 0 0 127 0" result="hardAlpha"/>
<feOffset dy="4"/>
<feGaussianBlur stdDeviation="2"/>
<feComposite in2="hardAlpha" operator="out"/>
<feColorMatrix type="matrix" values="0 0 0 0 0 0 0 0 0 0 0 0 0 0 0 0 0 0 0.25 0"/>
<feBlend mode="normal" in2="BackgroundImageFix" result="effect1_dropShadow_0_679"/>
<feBlend mode="normal" in="SourceGraphic" in2="effect1_dropShadow_0_679" result="shape"/>
</filter>
</defs>
</svg>

